<svg width="87" height="111" viewBox="0 0 87 111" fill="none" xmlns="http://www.w3.org/2000/svg">
<path d="M73.6 49.175C74.2 49.175 74.6 48.775 74.6 48.175V42.675C74.6 42.075 74.2 41.675 73.6 41.675H52.6V34.775L54.5 35.875C54.6 35.975 54.8 35.975 55 35.975C55.2 35.975 55.4 35.975 55.5 35.875C55.8 35.675 56 35.375 56 34.975V29.675C56 29.275 55.8 28.975 55.5 28.775L47.9 24.675C45 23.075 42 22.175 38.9 22.075C37.8 21.975 36.8 21.975 35.7 22.075C32.7 22.275 29.7 23.175 26.7 24.675L19.1 28.775C18.8 28.975 18.6 29.275 18.6 29.675V34.975C18.6 35.375 18.8 35.675 19.1 35.875C19.4 36.075 19.8 36.075 20.1 35.875L22 34.775V41.675H1C0.4 41.675 0 42.075 0 42.675V48.175C0 48.775 0.4 49.175 1 49.175H3.1V97.175H1C0.4 97.175 0 97.575 0 98.175V103.675C0 104.275 0.4 104.675 1 104.675H73.7C74.3 104.675 74.7 104.275 74.7 103.675V98.175C74.7 97.575 74.3 97.175 73.7 97.175H71.6V49.175H73.6ZM65.5 61.375H62.5V57.675H65.5V61.375ZM60.5 61.375H57.5V57.675H60.5V61.375ZM55.5 61.375H52.6V57.675H55.5V61.375ZM65.5 75.275H62.5V71.575H65.5V75.275ZM60.5 75.275H57.5V71.575H60.5V75.275ZM55.5 75.275H52.6V71.575H55.5V75.275ZM65.5 89.075H62.5V85.375H65.5V89.075ZM60.5 89.075H57.5V85.375H60.5V89.075ZM55.5 89.075H52.6V85.375H55.5V89.075ZM72.6 43.775V47.275H52.6V43.775H72.6ZM20.6 30.375L27.7 26.575C30.4 25.175 33.1 24.275 35.8 24.175C36.8 24.075 37.8 24.075 38.7 24.175C41.4 24.375 44.2 25.175 46.8 26.575L53.9 30.375V33.375L47.8 30.075C44.9 28.475 41.9 27.575 38.8 27.475C38.3 27.475 37.7 27.475 37.2 27.475C36.7 27.475 36.1 27.475 35.6 27.475C32.6 27.675 29.6 28.575 26.6 30.075L20.5 33.375V30.375H20.6ZM27.7 31.775C30.4 30.375 33.1 29.475 35.8 29.375C36.8 29.275 37.8 29.275 38.7 29.375C41.4 29.575 44.2 30.375 46.8 31.775L50.5 33.775V97.275H45.6V88.475V84.475C45.6 83.875 45.2 83.475 44.6 83.475H29.9C29.3 83.475 28.9 83.875 28.9 84.475V88.475V97.275H24V33.775L27.7 31.775ZM30.9 89.475H36.3V97.275H30.9V89.475ZM43.7 87.475H30.9V85.475H43.7V87.475V87.475ZM38.3 89.475H43.7V97.275H38.3V89.475ZM9.1 85.375H12.1V89.075H9.1V85.375ZM14.1 85.375H17.1V89.075H14.1V85.375ZM19.1 85.375H22V89.075H19.1V85.375V85.375ZM9.1 71.575H12.1V75.275H9.1V71.575ZM14.1 71.575H17.1V75.275H14.1V71.575ZM19.1 71.575H22V75.275H19.1V71.575V71.575ZM9.1 57.675H12.1V61.375H9.1V57.675ZM14.1 57.675H17.1V61.375H14.1V57.675ZM19.1 57.675H22V61.375H19.1V57.675V57.675ZM2 43.775H22.1V47.275H2V43.775ZM5 49.275H22V55.675H8C7.4 55.675 7 56.075 7 56.675V62.175V62.275V62.375C7 62.975 7.4 63.375 8 63.375H22V69.575H8C7.4 69.575 7 69.975 7 70.575V76.075V76.175V76.275C7 76.875 7.4 77.275 8 77.275H21.9V82.575C21.9 82.675 21.9 82.775 22 82.875V83.375H8C7.4 83.375 7 83.775 7 84.375V89.875V89.975V90.075C7 90.675 7.4 91.075 8 91.075H22V97.175H5V49.275V49.275ZM72.6 102.675H2V99.175H72.7V102.675H72.6ZM52.6 97.275V91.175H66.6C67.2 91.175 67.6 90.775 67.6 90.175V90.075V89.975V84.475C67.6 83.875 67.2 83.475 66.6 83.475H52.6V82.775C52.6 82.675 52.7 82.575 52.7 82.475V77.175H66.6C67.2 77.175 67.6 76.775 67.6 76.175V76.075V75.975V70.475C67.6 69.875 67.2 69.475 66.6 69.475H52.6V63.375H66.6C67.2 63.375 67.6 62.975 67.6 62.375V62.275V62.175V56.675C67.6 56.075 67.2 55.675 66.6 55.675H52.6V49.275H69.6V97.275H52.6Z" fill="#CBD5E0"/>
<path d="M29.8 63.3751H44.4C44.6 63.3751 44.8 63.2751 44.9 63.1751C45.3 63.0751 45.7001 62.6751 45.7001 62.1751V56.7751C45.7001 56.3751 45.4 55.975 45 55.875C44.8 55.775 44.6 55.675 44.4 55.675H29.8C29.2 55.675 28.8 56.075 28.8 56.675V62.1751V62.2751V62.3751C28.8 62.8751 29.3 63.3751 29.8 63.3751ZM43.8 61.3751H40.9V57.6751H43.8V61.3751ZM38.8 61.3751H35.8V57.6751H38.8V61.3751ZM33.8 61.3751H30.8V57.6751H33.8V61.3751Z" fill="#CBD5E0"/>
<path d="M29.8 77.075H44.4C44.6 77.075 44.8 76.975 44.9 76.875C45.3 76.775 45.7001 76.375 45.7001 75.875V70.475C45.7001 70.075 45.4 69.675 45 69.575C44.8 69.475 44.6 69.375 44.4 69.375H29.8C29.2 69.375 28.8 69.775 28.8 70.375V75.875V75.975V76.075C28.8 76.675 29.3 77.075 29.8 77.075ZM43.8 75.075H40.9V71.375H43.8V75.075ZM38.8 75.075H35.8V71.375H38.8V75.075ZM33.8 75.075H30.8V71.375H33.8V75.075Z" fill="#CBD5E0"/>
<path d="M29.8 49.075H44.4C44.6 49.075 44.8 48.975 44.9 48.875C45.3 48.775 45.7001 48.375 45.7001 47.875V42.475C45.7001 42.075 45.4 41.675 45 41.575C44.8 41.475 44.6 41.375 44.4 41.375H29.8C29.2 41.375 28.8 41.775 28.8 42.375V47.875V47.975V48.075C28.8 48.675 29.3 49.075 29.8 49.075ZM43.8 47.075H40.9V43.375H43.8V47.075ZM38.8 47.075H35.8V43.375H38.8V47.075ZM33.8 47.075H30.8V43.375H33.8V47.075Z" fill="#CBD5E0"/>
<path fill-rule="evenodd" clip-rule="evenodd" d="M49.0334 16.075C62.9917 10.4917 66.3417 11.6083 73.6001 22.2167C78.6251 29.475 80.8584 38.9666 79.7417 48.4583C78.0667 45.6666 75.8334 42.3166 73.6001 39.525C74.1584 37.2916 74.7167 35.0583 75.2751 33.3833C73.0417 36.175 73.6001 35.6166 73.0417 38.9666C72.4834 38.4083 72.4834 38.4083 72.4834 38.4083C72.4834 36.7333 72.4834 35.0583 73.6001 33.3833C71.9251 34.5 72.4834 34.5 71.9251 36.7333C71.3667 36.7333 71.3667 36.7333 71.3667 37.2916C69.6917 35.6166 68.5751 33.9416 67.4584 32.2666C67.4584 31.7083 67.4584 31.7083 67.4584 31.15L66.9001 31.7083C66.9001 31.7083 68.0167 25.0083 66.9001 25.0083C66.3417 26.125 66.3417 28.9166 65.7834 30.5916C62.4334 25.0083 59.6417 16.6333 50.1501 20.5417C59.0834 18.8667 61.8751 27.8 63.5501 33.9416C65.2251 41.2 66.9001 47.3416 66.9001 47.3416C64.6667 45.1083 62.9917 43.4333 61.3167 41.7583C61.3167 39.525 62.4334 36.7333 61.3167 35.0583C60.7584 36.175 60.2001 39.525 60.2001 40.6416C59.0834 38.9666 56.2917 37.2916 56.2917 36.7333C56.2917 36.175 56.2917 35.0583 56.2917 33.9416H55.7334C55.7334 32.2666 56.8501 30.0333 55.7334 29.475C55.7334 30.5916 55.1751 32.2666 55.1751 32.825H54.6167C54.6167 33.3833 54.6167 35.0583 54.6167 35.6166C54.6167 35.6166 53.5001 35.0583 53.5001 34.5C53.5001 34.5 54.6167 28.9166 53.5001 29.475C53.5001 29.475 52.9417 31.7083 52.3834 32.2666C51.2668 30.0333 49.5918 27.2417 48.4751 25.0083C47.3584 23.8917 47.3584 23.8917 46.8001 24.45C56.2917 46.225 59.6417 60.7416 62.9917 99.2666C64.6667 97.0333 66.3417 95.3583 68.0167 93.6833C66.9001 95.3583 65.7834 97.0333 65.2251 98.7083C66.9001 97.0333 69.1334 95.9166 70.8084 94.2416C69.6917 95.3583 68.5751 96.4749 67.4584 98.1499C68.5751 98.1499 69.6917 97.5916 70.8084 97.5916C68.0167 99.2666 66.9001 99.2666 69.6917 99.8249C70.8084 98.7083 72.4834 97.5916 74.1584 96.4749C73.6001 97.0333 73.6001 98.7083 73.0417 99.2666C74.1584 98.7083 75.2751 99.2666 76.9501 98.7083C71.3667 104.292 84.2084 103.733 87.0001 107.642C83.6501 106.525 70.2501 109.875 56.8501 110.433C45.6834 110.992 33.9584 108.2 30.6084 108.2C30.6084 107.642 41.7751 102.617 41.2168 102.617C40.6584 101.5 39.5418 100.942 38.4251 99.8249C41.2168 99.8249 43.4501 100.383 46.8001 102.058C45.6834 100.942 44.5668 99.8249 44.0084 98.7083C44.5668 98.7083 45.1251 99.2666 45.6834 99.2666C45.6834 98.7083 45.1251 97.5916 44.5668 96.4749C45.6834 97.5916 46.8001 98.1499 47.9168 99.2666C47.9168 97.5916 47.3584 95.9166 46.8001 94.2416C47.9168 95.9166 49.0334 97.5916 50.1501 98.7083C56.8501 70.7916 53.5001 50.1333 44.5668 25.5667C41.2168 21.6583 42.3334 33.9416 41.7751 37.85C41.2168 37.2916 39.5418 35.0583 38.9834 34.5C37.8668 35.6166 41.2168 39.525 41.2168 40.0833C40.6584 40.6416 40.6584 41.7583 40.1001 42.875C40.1001 41.7583 38.4251 40.6416 38.4251 39.525C37.3084 40.6416 39.5418 43.4333 40.1001 43.9916C40.1001 43.9916 40.1001 43.9916 39.5418 44.55C39.5418 44.55 38.9834 44.55 38.4251 43.9916C38.9834 44.55 38.9834 45.1083 39.5418 45.6666C38.4251 49.575 37.8668 50.6916 38.9834 53.4833C36.7501 52.3666 33.4001 50.1333 33.9584 44.55C33.9584 37.85 36.1918 25.5667 41.7751 20.5417C41.2168 20.5417 38.4251 21.6583 38.4251 21.6583C38.4251 19.9833 38.4251 18.8667 38.9834 17.75C37.3084 18.3083 37.3084 19.9833 37.3084 21.6583C36.7501 21.6583 36.7501 21.6583 36.1918 21.6583C36.1918 20.5417 36.7501 19.9833 36.7501 18.8667H36.1918C36.1918 18.3083 36.1918 17.75 36.7501 16.6333C34.5168 17.1917 35.0751 22.2167 35.0751 23.8917C35.0751 23.8917 34.5168 25.5667 33.9584 25.5667C33.4001 23.8917 32.8418 22.775 32.8418 21.6583C31.7251 21.6583 32.8418 26.125 33.9584 26.6833C32.8418 27.8 32.8418 27.8 31.7251 29.475C30.6084 26.6833 31.1668 27.2417 30.0501 23.8917C27.8168 24.45 30.6084 32.2666 30.6084 32.825C30.6084 35.0583 30.0501 37.85 30.0501 40.0833C28.9334 38.9666 28.3751 37.85 27.8168 36.7333C27.8168 36.175 26.1418 35.6166 27.8168 37.85C28.3751 39.525 28.9334 41.2 29.4918 42.875C29.4918 45.1083 28.9334 46.7833 28.9334 49.0166C27.8168 47.9 27.2584 46.225 26.7001 45.1083C24.4668 44.55 27.2584 47.9 27.2584 48.4583C27.2584 48.4583 26.7001 48.4583 26.1418 47.9C25.5834 47.3416 24.4668 46.225 23.9084 45.6666C22.7918 46.7833 27.2584 50.6916 27.8168 51.8083C27.8168 53.4833 27.8168 55.7166 27.2584 57.95C21.1168 49.0166 19.4418 41.7583 20.0001 30.5916C20.5584 23.8917 34.5168 6.02499 40.6584 12.725C41.7751 14.4 42.3334 15.5167 42.3334 15.5167C42.8918 13.8417 43.4501 10.4917 41.2168 9.37499C42.3334 8.25833 42.8918 7.69999 43.4501 7.14166C43.4501 4.90833 40.6584 7.69999 40.6584 8.25833C39.5418 6.58333 38.4251 6.58333 36.7501 6.025C37.8668 4.90833 38.9834 4.35 40.1001 3.23333C38.9834 2.675 37.8668 4.35 36.1918 5.46666C35.6334 3.79166 31.7251 3.79166 30.6084 3.79166C37.3084 -2.90833 46.8001 3.23333 46.8001 13.2833C54.6167 6.02499 61.8751 4.90833 70.2501 7.14166C69.6917 7.69999 62.4334 8.81666 62.9917 9.37499C61.8751 7.69999 61.3167 7.14166 60.2001 8.25833C60.7584 8.81666 61.3167 9.93333 61.8751 10.4917C60.2001 10.4917 47.9168 14.9583 49.0334 16.075Z" fill="#D69E2E"/>
</svg>
